<?xml version="1.0" standalone="no"?>
<!DOCTYPE svg PUBLIC "-//W3C//DTD SVG 20010904//EN"
 "http://www.w3.org/TR/2001/REC-SVG-20010904/DTD/svg10.dtd">
<svg version="1.0" xmlns="http://www.w3.org/2000/svg"
 width="499.000000pt" height="499.000000pt" viewBox="0 0 499.000000 499.000000"
 preserveAspectRatio="xMidYMid meet">
<metadata>
Created by potrace 1.14, written by Peter Selinger 2001-2017
</metadata>
<g transform="translate(0.000000,499.000000) scale(0.100000,-0.100000)"
fill="#000000" stroke="none">
<path d="M2290 4902 c0 -4 -42 -8 -93 -9 -143 -4 -175 -7 -174 -18 1 -5 -8 -9
-20 -9 -13 1 -20 -3 -16 -12 3 -8 -4 -12 -21 -10 -14 2 -26 0 -26 -5 0 -6 -33
-22 -51 -24 -3 0 -17 -13 -32 -29 -16 -17 -27 -23 -27 -15 -1 10 -4 9 -11 -4
-6 -9 -14 -15 -20 -12 -5 4 -9 -1 -9 -9 0 -9 -7 -16 -15 -16 -8 0 -15 -5 -15
-11 0 -5 -5 -7 -11 -3 -23 14 -98 11 -117 -5 -10 -9 -24 -17 -31 -19 -7 -1
-20 -9 -28 -17 -8 -9 -19 -13 -24 -10 -5 4 -9 1 -9 -5 0 -6 -4 -9 -8 -6 -5 3
-15 -6 -22 -19 -7 -14 -17 -25 -22 -25 -4 0 -8 -6 -8 -14 0 -8 -7 -16 -15 -20
-8 -3 -14 -10 -13 -15 2 -4 -12 -23 -29 -40 -18 -17 -31 -31 -28 -31 2 0 -8
-13 -23 -29 -47 -49 -61 -70 -68 -96 -3 -14 -11 -25 -17 -25 -6 0 -8 -3 -4 -6
3 -4 -3 -24 -13 -45 -11 -21 -22 -49 -24 -61 -3 -13 -5 -23 -6 -23 -1 0 -3
-11 -6 -24 -2 -14 -9 -30 -15 -37 -7 -8 -7 -14 1 -19 8 -5 7 -11 -2 -23 -7 -9
-8 -13 -2 -9 12 7 13 -110 1 -130 -4 -7 -3 -14 3 -18 5 -3 10 -11 10 -16 0 -6
-5 -7 -12 -3 -7 4 -8 3 -4 -5 4 -6 10 -62 12 -124 3 -62 5 -127 6 -144 1 -18
6 -33 12 -33 6 0 4 -5 -4 -10 -8 -5 -10 -10 -4 -10 6 0 11 -16 12 -35 1 -19 6
-45 13 -56 8 -16 8 -20 -1 -14 -9 5 -8 1 1 -16 7 -13 12 -27 11 -31 -1 -5 2
-8 7 -8 5 0 14 -13 21 -30 7 -16 17 -30 22 -30 5 0 7 -4 4 -9 -3 -5 1 -11 9
-15 11 -4 13 -11 5 -31 -6 -16 -6 -25 1 -25 5 0 -1 -11 -13 -24 -13 -13 -25
-22 -28 -19 -2 2 -12 -16 -21 -39 -18 -46 -19 -168 -2 -191 5 -7 15 -31 22
-55 7 -24 19 -46 27 -49 7 -3 11 -9 8 -14 -3 -5 0 -9 5 -9 6 0 11 -6 11 -12 0
-7 9 -24 20 -38 11 -14 20 -33 20 -42 0 -10 5 -18 10 -18 6 0 9 -3 8 -7 -1 -5
3 -18 10 -30 7 -13 10 -23 7 -23 -4 0 0 -7 9 -15 24 -24 -7 -94 -44 -100 -36
-6 -79 -21 -97 -32 -13 -9 -23 -11 -23 -7 0 5 -4 4 -8 -1 -4 -6 -41 -24 -82
-39 -41 -16 -99 -40 -129 -54 -30 -13 -59 -25 -65 -26 -6 -1 -18 -6 -26 -11
-8 -5 -43 -24 -77 -41 -35 -17 -60 -33 -57 -36 8 -8 -34 -21 -45 -14 -5 3 -12
-1 -15 -10 -3 -8 -10 -13 -15 -10 -5 3 -12 -1 -15 -10 -4 -11 -2 -15 8 -11 11
4 13 1 9 -11 -4 -13 -2 -12 10 3 8 11 13 23 11 27 -3 5 0 8 6 8 8 0 10 -9 5
-27 -8 -33 -24 -55 -35 -48 -5 3 -10 1 -12 -4 -1 -5 -9 -11 -17 -13 -8 -2 -22
-9 -32 -17 -16 -13 -16 -16 -2 -38 15 -23 15 -24 -5 -30 -12 -3 -22 -9 -22
-13 0 -4 -18 -15 -39 -24 -35 -13 -39 -18 -35 -44 4 -23 0 -31 -21 -40 -31
-14 -38 -15 -30 -3 3 6 -4 9 -15 8 -11 -1 -20 -5 -20 -9 0 -4 -8 -4 -17 -1
-15 6 -16 4 -6 -9 7 -8 10 -17 7 -21 -3 -3 1 -4 10 -3 8 1 19 6 23 11 4 4 2 5
-4 1 -7 -4 -13 -2 -13 4 0 15 25 7 26 -8 1 -7 2 -18 3 -26 1 -10 10 -13 31
-10 18 3 30 1 30 -6 0 -6 6 -8 13 -4 6 4 4 -2 -6 -13 -19 -21 -14 -33 15 -33
23 0 23 -22 -1 -44 -17 -15 -35 -20 -91 -25 -13 -1 -13 -2 0 -11 8 -5 10 -10
4 -10 -6 0 -24 -11 -39 -24 -16 -14 -31 -25 -34 -24 -19 2 -31 -3 -31 -13 0
-6 5 -7 13 -2 14 9 19 10 47 12 11 0 20 7 20 14 0 9 10 13 28 12 15 -1 32 2
39 8 7 5 18 7 25 5 7 -3 -9 -17 -35 -32 -52 -31 -58 -44 -11 -25 47 20 61 19
34 -1 -13 -10 -28 -16 -32 -14 -4 3 -8 0 -8 -5 0 -6 -7 -11 -15 -11 -9 0 -18
-6 -21 -13 -2 -7 -16 -14 -30 -15 -35 -3 -49 -12 -33 -22 11 -8 57 7 69 21 13
15 50 28 66 22 13 -5 15 -3 9 7 -5 8 -4 11 3 6 6 -4 20 -1 30 5 12 7 27 9 38
4 18 -7 18 -8 2 -12 -10 -3 -18 -9 -18 -14 0 -6 -4 -8 -9 -5 -5 3 -14 -1 -21
-9 -7 -8 -16 -13 -20 -10 -4 2 -15 -1 -25 -9 -15 -11 -16 -13 -1 -13 9 0 16 4
16 9 0 5 4 7 9 3 5 -3 12 -1 16 5 4 6 13 5 25 -2 21 -13 17 -28 -7 -28 -24 0
-43 -31 -32 -52 8 -14 -4 -23 -72 -58 -82 -42 -97 -44 -85 -14 5 14 9 14 23 3
14 -12 15 -12 11 1 -6 18 -35 16 -80 -5 -32 -14 -32 -14 -6 -12 15 1 27 -1 28
-5 1 -24 -2 -28 -17 -28 -10 0 -28 -12 -40 -27 -13 -14 -26 -23 -29 -20 -4 4
-21 -3 -38 -15 -40 -29 -60 -48 -49 -48 5 0 15 6 22 12 11 10 14 10 18 1 4
-10 10 -9 26 2 28 19 48 19 41 0 -8 -20 -7 -20 56 13 30 16 68 31 83 34 26 5
28 4 25 -26 -2 -17 -7 -31 -12 -31 -24 0 -86 -82 -86 -113 0 -10 -3 -22 -7
-25 -3 -4 -7 -18 -9 -31 -2 -22 0 -23 27 -16 33 10 35 -2 5 -34 -12 -12 -15
-21 -9 -23 7 -3 25 10 42 28 22 23 28 35 21 44 -8 9 -6 14 4 18 9 4 20 -1 26
-11 9 -16 11 -16 25 2 8 10 16 24 19 30 3 7 8 6 15 -4 5 -8 13 -11 17 -7 10
10 35 -13 28 -25 -4 -6 6 -8 24 -7 29 3 102 -28 102 -43 0 -5 6 -8 13 -8 7 0
23 -14 37 -31 29 -36 57 -64 68 -65 32 -4 76 -34 124 -86 53 -57 61 -62 100
-62 24 0 52 4 63 8 11 5 29 11 40 13 10 2 29 10 40 17 17 11 22 11 34 -1 7 -8
10 -17 7 -20 -3 -3 -1 -12 6 -20 6 -8 7 -13 2 -11 -5 2 -21 -7 -34 -20 -27
-25 -100 -62 -122 -62 -8 0 -19 -5 -24 -10 -6 -6 -23 -13 -39 -16 -48 -9 -62
-22 -69 -63 -4 -27 -13 -44 -28 -52 -19 -10 -19 -12 -5 -21 10 -5 22 -6 29 -2
7 4 8 3 4 -4 -4 -7 -2 -12 4 -12 6 0 9 -4 5 -9 -3 -5 -1 -12 4 -15 12 -8 41
21 41 40 0 11 4 12 19 5 10 -6 21 -8 23 -5 7 6 2 -37 -6 -64 -6 -18 -3 -20 48
-17 30 2 62 8 72 13 11 6 27 6 45 0 21 -7 34 -5 56 9 15 9 30 20 33 24 15 18
68 26 96 14 16 -6 36 -11 44 -9 23 4 91 34 106 47 33 30 43 35 75 43 19 4 37
7 42 6 4 -1 7 3 7 8 0 6 5 10 11 10 7 0 44 15 83 34 60 29 78 33 107 27 19 -4
43 -4 54 0 32 12 55 10 55 -6 0 -8 7 -15 15 -15 9 0 25 -8 36 -19 11 -10 32
-21 47 -24 15 -3 35 -9 45 -13 10 -3 17 -3 16 2 -4 25 5 34 54 50 28 10 61 19
72 21 11 2 29 14 40 27 12 15 59 39 120 61 116 43 253 107 310 145 22 14 67
39 100 55 33 15 83 43 110 61 28 18 57 34 65 36 8 2 23 10 33 19 16 14 63 30
83 28 4 0 10 3 13 8 15 21 66 45 109 50 48 6 109 31 150 64 28 21 88 50 157
75 28 9 55 21 61 26 6 4 36 17 66 27 58 20 100 49 92 63 -3 4 8 13 23 20 15 7
31 16 34 21 3 5 9 2 12 -7 4 -9 1 -16 -5 -16 -8 0 -9 -3 -2 -10 8 -8 20 -7 40
1 16 7 31 13 34 14 3 1 20 6 38 10 17 4 32 10 32 14 0 10 53 12 59 3 3 -5 26
-4 51 1 40 8 43 10 26 22 -16 12 -16 16 -4 34 8 12 19 18 24 13 4 -4 2 1 -5
10 -13 18 -6 43 9 33 5 -3 12 0 16 7 5 8 10 4 15 -10 5 -12 13 -22 19 -22 7 0
8 6 1 18 -12 22 3 42 32 42 13 0 17 5 14 15 -7 16 7 28 38 32 50 8 116 36 112
48 -4 8 9 17 34 24 22 7 37 16 34 20 -3 5 -39 -4 -80 -19 -72 -27 -75 -27 -75
-8 0 27 -24 50 -38 36 -8 -8 -13 -7 -18 5 -4 12 -13 15 -30 11 -15 -4 -24 -2
-24 5 0 6 5 11 11 11 9 0 9 4 0 14 -8 10 -5 19 13 39 13 14 26 32 29 39 3 10
7 10 17 1 10 -9 24 -6 61 13 27 13 49 22 49 18 0 -3 7 2 16 10 8 9 21 16 28
16 8 0 34 9 60 20 37 17 46 26 46 46 0 13 7 27 15 30 8 4 15 12 15 19 0 19
-55 29 -81 15 -12 -7 -34 -10 -51 -8 -16 3 -31 1 -34 -4 -3 -4 -13 -4 -23 1
-13 7 -24 4 -46 -15 -32 -27 -37 -28 -52 -13 -20 20 -70 18 -89 -2 -16 -18
-17 -18 -37 8 l-21 26 28 21 c15 12 71 44 125 72 93 48 116 74 68 74 -21 0
-21 1 3 20 14 11 30 20 36 20 6 0 21 11 34 25 13 14 32 25 42 25 10 0 18 4 18
9 0 10 -66 24 -79 17 -5 -3 -14 1 -21 8 -13 16 6 31 51 40 13 3 38 9 54 14 26
8 27 11 11 17 -11 5 -21 3 -26 -5 -6 -9 -13 -8 -34 5 -14 10 -26 14 -26 11 0
-4 -9 -2 -20 4 -17 9 -20 8 -20 -11 0 -15 -5 -19 -15 -15 -8 3 -15 1 -15 -4 0
-6 -7 -10 -15 -10 -17 0 -20 25 -5 35 6 3 10 11 10 16 0 6 -4 7 -10 4 -5 -3
-10 0 -10 8 0 12 -17 14 -87 11 -54 -2 -83 0 -77 6 5 5 24 10 42 12 19 1 36 6
38 10 3 4 18 8 35 8 16 0 29 5 29 10 0 6 -4 10 -10 10 -5 0 -7 6 -4 13 3 10
-13 13 -71 12 -54 0 -80 4 -88 14 -10 11 -8 13 10 7 12 -4 24 -2 28 4 3 5 15
10 27 10 16 0 18 3 9 13 -6 8 -8 17 -4 20 3 4 -2 7 -12 7 -15 0 -15 2 -4 16
10 13 10 17 -2 24 -8 5 -24 8 -36 5 -15 -2 -23 1 -23 11 0 8 5 14 11 14 5 0 8
4 4 10 -3 5 -12 7 -20 4 -8 -3 -31 0 -51 6 -26 9 -33 15 -25 23 21 21 11 27
-24 13 -19 -8 -35 -12 -35 -8 0 3 -5 1 -12 -6 -7 -7 -19 -12 -27 -12 -8 0 -11
3 -8 6 3 4 2 15 -4 25 -7 15 -6 19 6 19 8 0 15 4 15 8 0 5 18 18 39 30 21 12
41 28 44 35 2 7 36 23 73 36 38 13 80 32 94 41 14 9 33 20 43 23 9 4 17 11 17
17 0 6 -5 8 -11 4 -8 -4 -9 0 -4 15 4 12 2 21 -4 21 -16 0 -13 26 5 44 22 22
10 50 -31 72 l-35 18 30 28 c17 15 30 33 29 40 -1 22 -13 43 -26 44 -27 2 -31
4 -37 21 -4 9 4 31 18 53 l25 37 -22 10 c-24 10 -29 10 -73 0 -17 -5 -43 -3
-58 3 -22 8 -26 14 -21 31 4 11 4 36 1 55 l-7 33 -79 -4 c-46 -3 -81 -1 -85 5
-11 18 -43 10 -63 -15 -11 -14 -25 -25 -31 -25 -15 0 -49 -19 -84 -47 -32 -26
-57 -28 -122 -11 -35 10 -52 9 -80 -1 -19 -7 -46 -13 -58 -15 -29 -3 -117 -45
-117 -56 0 -4 -10 -7 -23 -7 -29 0 -46 33 -36 72 5 15 6 32 3 37 -3 4 0 8 7 8
7 0 9 3 6 7 -4 3 5 17 19 30 14 12 22 28 19 33 -3 6 -1 10 4 10 6 0 11 5 11
10 0 6 11 23 25 38 14 15 23 33 20 40 -2 6 3 12 11 12 8 0 12 5 9 10 -3 6 -1
10 4 10 6 0 11 6 11 14 0 8 7 17 16 20 8 3 13 10 10 15 -9 14 5 42 17 34 5 -3
8 -2 4 3 -3 5 0 16 6 25 14 18 107 83 107 74 0 -3 6 0 14 7 8 7 12 16 9 21 -2
4 0 7 6 7 13 0 38 52 35 73 -1 9 2 17 7 17 6 0 8 4 5 9 -4 5 -7 28 -8 50 -1
23 -6 41 -12 41 -6 0 -4 5 4 10 10 6 11 10 3 10 -8 0 -13 13 -13 31 0 17 -4
28 -10 24 -6 -4 -10 5 -10 19 0 14 -4 26 -10 26 -5 0 -10 6 -10 14 0 15 -52
46 -77 46 -7 0 -13 5 -13 12 0 9 -3 9 -12 0 -10 -10 -16 -8 -31 10 -10 13 -15
17 -11 9 4 -9 2 -12 -7 -9 -8 3 -13 11 -11 17 1 7 -2 10 -7 7 -5 -4 -12 -2
-16 3 -3 6 -12 8 -20 4 -11 -4 -13 -1 -9 11 4 11 1 16 -11 16 -11 0 -15 5 -12
15 4 8 1 17 -5 21 -7 5 -8 2 -3 -6 5 -9 4 -11 -3 -6 -7 4 -12 14 -12 22 0 8
-3 14 -8 14 -4 0 -13 14 -20 30 -8 17 -18 28 -23 24 -8 -5 -13 9 -10 28 0 4
-9 10 -21 13 -16 6 -18 9 -7 16 11 7 11 9 1 9 -23 0 -51 43 -52 78 0 18 -4 31
-9 27 -5 -3 -12 3 -15 13 -4 10 -18 25 -31 32 -14 7 -25 19 -25 27 0 7 -5 13
-11 13 -6 0 -27 12 -47 28 -20 15 -33 21 -28 15 4 -7 2 -13 -3 -13 -6 0 -11 5
-11 11 0 5 -4 7 -10 4 -5 -3 -10 -2 -10 4 0 6 -7 8 -16 4 -9 -3 -20 0 -25 8
-6 11 -11 11 -20 2 -14 -14 -42 -5 -32 11 4 7 1 7 -9 -1 -8 -7 -18 -10 -21 -6
-4 3 -7 0 -7 -8 -1 -10 -3 -9 -11 3 -7 14 -15 15 -34 8 -14 -5 -25 -7 -25 -4
0 4 -8 0 -17 -7 -10 -8 -14 -9 -10 -2 5 8 -3 12 -25 12 -56 0 -73 4 -80 15 -5
8 -8 7 -8 -1 0 -16 -36 -17 -45 -2 -5 7 -14 4 -28 -8 -11 -10 -17 -13 -14 -7
4 7 -2 14 -13 17 -11 3 -18 1 -14 -4 6 -11 2 -11 -53 0 -30 6 -43 5 -43 -3 0
-8 -2 -8 -8 0 -4 6 -20 10 -35 10 -16 -1 -31 2 -34 7 -3 5 -9 4 -13 -2 -5 -8
-14 -9 -33 -2 -15 6 -27 7 -27 3z m1880 -2162 c0 -5 -5 -10 -11 -10 -5 0 -7 5
-4 10 3 6 8 10 11 10 2 0 4 -4 4 -10z m-3424 -533 c2 -2 -4 -13 -14 -25 l-19
-22 -11 26 c-7 14 -12 27 -12 30 0 5 50 -3 56 -9z m3809 -37 c-3 -5 -10 -10
-16 -10 -5 0 -9 5 -9 10 0 6 7 10 16 10 8 0 12 -4 9 -10z m-345 -231 c0 -15
-5 -19 -15 -15 -8 3 -15 1 -15 -4 0 -5 -7 -7 -15 -4 -22 9 1 33 43 43 1 1 2
-8 2 -20z m180 -109 c0 -5 -5 -10 -11 -10 -5 0 -7 5 -4 10 3 6 8 10 11 10 2 0
4 -4 4 -10z"/>
<path d="M696 2291 c-14 -5 -16 -10 -8 -15 7 -4 16 -5 21 -2 5 4 11 1 13 -6 3
-7 7 -2 10 10 6 23 -2 26 -36 13z"/>
<path d="M520 2080 c0 -5 -7 -7 -15 -4 -8 3 -19 3 -26 -1 -18 -12 12 -25 32
-15 9 5 19 6 23 3 3 -3 6 1 6 10 0 10 -4 17 -10 17 -5 0 -10 -4 -10 -10z"/>
<path d="M400 2010 c-8 -5 -12 -11 -9 -14 2 -3 11 -1 19 4 8 5 12 11 9 14 -2
3 -11 1 -19 -4z"/>
<path d="M360 1989 c0 -5 5 -7 10 -4 6 3 10 8 10 11 0 2 -4 4 -10 4 -5 0 -10
-5 -10 -11z"/>
<path d="M487 1976 c-4 -10 -1 -13 8 -9 8 3 12 9 9 14 -7 12 -11 11 -17 -5z"/>
<path d="M447 1966 c-4 -10 -1 -13 8 -9 8 3 12 9 9 14 -7 12 -11 11 -17 -5z"/>
<path d="M4344 1888 c-10 -16 2 -18 21 -5 16 12 16 14 1 14 -9 0 -19 -4 -22
-9z"/>
<path d="M530 1880 c-8 -5 -12 -11 -9 -14 2 -3 11 -1 19 4 8 5 12 11 9 14 -2
3 -11 1 -19 -4z"/>
<path d="M485 1860 c-3 -6 1 -7 9 -4 18 7 21 14 7 14 -6 0 -13 -4 -16 -10z"/>
<path d="M470 1750 c-20 -12 -10 -19 14 -10 11 3 15 9 10 13 -6 3 -16 2 -24
-3z"/>
<path d="M278 1484 c-31 -16 -38 -31 -10 -19 9 4 33 14 52 21 30 11 32 13 10
13 -14 0 -37 -7 -52 -15z"/>
<path d="M216 1444 c-5 -14 -4 -15 9 -4 17 14 19 20 6 20 -5 0 -12 -7 -15 -16z"/>
<path d="M466 1413 c-3 -7 -2 -13 3 -13 5 0 14 6 20 13 8 10 7 14 -4 14 -8 0
-16 -6 -19 -14z"/>
<path d="M285 1360 c-3 -5 -2 -10 4 -10 5 0 13 5 16 10 3 6 2 10 -4 10 -5 0
-13 -4 -16 -10z"/>
<path d="M360 1270 c0 -5 7 -7 15 -4 8 4 15 8 15 10 0 2 -7 4 -15 4 -8 0 -15
-4 -15 -10z"/>
<path d="M401 1113 c-7 -8 -11 -16 -8 -19 2 -2 10 2 17 11 17 20 9 27 -9 8z"/>
</g>
</svg>
